<svg xmlns="http://www.w3.org/2000/svg" viewBox="0 0 64 64" role="img" aria-label="AutoWebGame — bomba prisma">
  <defs>
    <linearGradient id="panel" x1="8" y1="4" x2="56" y2="60" gradientUnits="userSpaceOnUse">
      <stop stop-color="#24102f"/>
      <stop offset="1" stop-color="#08040d"/>
    </linearGradient>
    <radialGradient id="bomb" cx="35%" cy="27%" r="78%">
      <stop stop-color="#5d6470"/>
      <stop offset=".52" stop-color="#242831"/>
      <stop offset="1" stop-color="#090a0d"/>
    </radialGradient>
    <linearGradient id="fuse" x1="36" y1="24" x2="51" y2="10" gradientUnits="userSpaceOnUse">
      <stop stop-color="#e7b35f"/>
      <stop offset="1" stop-color="#ff7a32"/>
    </linearGradient>
    <radialGradient id="spark" cx="50%" cy="50%" r="50%">
      <stop stop-color="#fff7cf"/>
      <stop offset=".35" stop-color="#ffd45d"/>
      <stop offset="1" stop-color="#ff5b27"/>
    </radialGradient>
  </defs>
  <rect x="2" y="2" width="60" height="60" rx="14" fill="url(#panel)" stroke="#f27834" stroke-width="2"/>
  <path d="M8 44 22 58H8Z" fill="#ff4e83" opacity=".28"/>
  <path d="m56 20-12-14h12Z" fill="#7d5cff" opacity=".34"/>
  <path d="M35 24c4-7 8-8 14-14" fill="none" stroke="#361b11" stroke-width="5" stroke-linecap="round"/>
  <path d="M35 24c4-7 8-8 14-14" fill="none" stroke="url(#fuse)" stroke-width="2.5" stroke-linecap="round"/>
  <rect x="27" y="20" width="12" height="8" rx="3" fill="#444a55" stroke="#111319" stroke-width="2"/>
  <circle cx="32" cy="40" r="18" fill="url(#bomb)" stroke="#f27834" stroke-width="1.5"/>
  <ellipse cx="26" cy="34" rx="5" ry="3" transform="rotate(-30 26 34)" fill="#fff" opacity=".28"/>
  <path d="m49 4 2.2 4.8L56 11l-4.8 2.2L49 18l-2.2-4.8L42 11l4.8-2.2Z" fill="url(#spark)"/>
  <circle cx="32" cy="40" r="13" fill="none" stroke="#fff" stroke-opacity=".07"/>
</svg>
