<svg xmlns="http://www.w3.org/2000/svg" viewBox="0 0 512 512" width="512" height="512">
<defs>
  <radialGradient id="bg" cx="50%" cy="36%" r="78%">
    <stop offset="0" stop-color="#160a1c"/>
    <stop offset="0.55" stop-color="#0b0511"/>
    <stop offset="1" stop-color="#050208"/>
  </radialGradient>
  <radialGradient id="bloom" cx="50%" cy="50%" r="50%">
    <stop offset="0" stop-color="rgba(242,120,52,0.22)"/>
    <stop offset="0.5" stop-color="rgba(242,120,52,0.06160000000000001)"/>
    <stop offset="1" stop-color="rgba(242,120,52,0)"/>
  </radialGradient>
  <radialGradient id="spec" cx="50%" cy="50%" r="50%">
    <stop offset="0" stop-color="#ffffff" stop-opacity="0.85"/>
    <stop offset="0.4" stop-color="#ffe6df" stop-opacity="0.32"/>
    <stop offset="1" stop-color="#ffd9d0" stop-opacity="0"/>
  </radialGradient>
  <filter id="soft" x="-40%" y="-40%" width="180%" height="180%"><feGaussianBlur stdDeviation="3"/></filter>
  <filter id="glow" x="-60%" y="-60%" width="220%" height="220%"><feGaussianBlur stdDeviation="7"/></filter>
  <clipPath id="sq"><rect x="16" y="16" width="480" height="480" rx="114"/></clipPath>
  
    <radialGradient id="b-body" cx="40%" cy="34%" r="72%"><stop offset="0" stop-color="#4c525b"/><stop offset="0.5" stop-color="#23262c"/><stop offset="1" stop-color="#090a0d"/></radialGradient>
    <radialGradient id="b-spark" cx="50%" cy="50%" r="50%"><stop offset="0" stop-color="#fff6e0"/><stop offset="0.4" stop-color="#ffb347"/><stop offset="1" stop-color="#f0743a" stop-opacity="0"/></radialGradient>
</defs>
<rect x="16" y="16" width="480" height="480" rx="114" fill="url(#bg)"/>
<g clip-path="url(#sq)">
  <rect x="16" y="16" width="480" height="480" fill="url(#bloom)"/>
  <circle cx="445.76" cy="305.83" r="1.01" fill="rgba(242,120,52,1)" opacity="0.25"/><circle cx="382.67" cy="403.24" r="0.94" fill="rgba(242,120,52,1)" opacity="0.44"/><circle cx="257.06" cy="446.79" r="1.31" fill="rgba(242,120,52,1)" opacity="0.41"/><circle cx="146.63" cy="397.39" r="1.70" fill="rgba(242,120,52,1)" opacity="0.25"/><circle cx="81.21" cy="305.6" r="1.81" fill="rgba(242,120,52,1)" opacity="0.33"/><circle cx="78.95" cy="239.62" r="2.49" fill="rgba(242,120,52,1)" opacity="0.47"/><circle cx="108.12" cy="133.56" r="2.52" fill="rgba(242,120,52,1)" opacity="0.24"/><circle cx="237.49" cy="61.07" r="2.01" fill="rgba(242,120,52,1)" opacity="0.26"/><circle cx="339.01" cy="61.49" r="1.60" fill="rgba(242,120,52,1)" opacity="0.25"/><circle cx="433.02" cy="193.01" r="1.08" fill="rgba(242,120,52,1)" opacity="0.41"/>
  
    <g filter="url(#glow)"><circle cx="348" cy="72" r="30" fill="url(#b-spark)"/></g>
    <path d="M 256 162 C 290 108 312 112 348 72" fill="none" stroke="#caa15a" stroke-width="9" stroke-linecap="round"/>
    <circle cx="256" cy="284" r="116" fill="url(#b-body)"/>
    <circle cx="256" cy="284" r="116" fill="none" stroke="#000" stroke-opacity="0.5" stroke-width="2"/>
    <ellipse cx="220" cy="242" rx="32" ry="19" fill="#ffffff" opacity="0.16" transform="rotate(-28 220 242)"/>
    <rect x="236" y="150" width="40" height="24" rx="6" fill="#2a2d33"/>
    <path d="M 348 53 Q 351.42 68.58 367 72 Q 351.42 75.42 348 91 Q 344.58 75.42 329 72 Q 344.58 68.58 348 53 Z" fill="#ffd27a" opacity="0.95"/>
    <path d="M 326 46 Q 327.44 52.56 334 54 Q 327.44 55.44 326 62 Q 324.56 55.44 318 54 Q 324.56 52.56 326 46 Z" fill="#ffb347" opacity="0.7"/>
    <path d="M 372 73 Q 373.26 78.74 379 80 Q 373.26 81.26 372 87 Q 370.74 81.26 365 80 Q 370.74 78.74 372 73 Z" fill="#ff8a3a" opacity="0.6"/>
</g>
<rect x="16.75" y="16.75" width="478.5" height="478.5" rx="113.25" fill="none" stroke="rgba(242,120,52,0.22)" stroke-width="1.5"/>
</svg>